<?xml version="1.0" encoding="UTF-8"?>
<svg xmlns="http://www.w3.org/2000/svg" xmlns:xlink="http://www.w3.org/1999/xlink" width="20px" height="20px" viewBox="0 0 20 20" version="1.1">
<g id="surface1">
<path style=" stroke:none;fill-rule:evenodd;fill:rgb(0%,0%,0%);fill-opacity:1;" d="M 2.949219 1.171875 C 2.578125 1.308594 2.507812 1.347656 2.375 1.472656 C 2.296875 1.542969 2.25 1.601562 2.269531 1.601562 C 2.285156 1.601562 2.257812 1.644531 2.203125 1.695312 C 2.039062 1.859375 1.988281 2.140625 1.964844 3.011719 C 1.949219 3.472656 1.917969 3.851562 1.894531 3.851562 C 1.828125 3.851562 1.839844 3.988281 1.914062 4.015625 C 1.960938 4.035156 1.960938 4.054688 1.90625 4.089844 C 1.867188 4.117188 1.851562 4.164062 1.871094 4.195312 C 1.890625 4.226562 1.882812 4.25 1.855469 4.25 C 1.824219 4.25 1.789062 4.304688 1.769531 4.375 C 1.726562 4.546875 1.539062 4.683594 1.296875 4.726562 C 1.1875 4.742188 1.101562 4.777344 1.101562 4.804688 C 1.101562 4.828125 1.066406 4.835938 1.027344 4.820312 C 0.84375 4.75 0.648438 5.046875 0.648438 5.398438 C 0.648438 5.800781 0.734375 5.902344 1.140625 5.992188 C 1.476562 6.066406 1.726562 6.253906 1.804688 6.492188 C 1.835938 6.59375 1.886719 6.703125 1.914062 6.738281 C 1.949219 6.78125 1.941406 6.800781 1.894531 6.800781 C 1.847656 6.800781 1.84375 6.8125 1.882812 6.839844 C 1.917969 6.863281 1.945312 7.1875 1.960938 7.773438 C 1.984375 8.632812 2.035156 8.949219 2.15625 8.949219 C 2.179688 8.949219 2.199219 8.980469 2.199219 9.019531 C 2.199219 9.140625 2.558594 9.453125 2.824219 9.570312 C 3.105469 9.695312 4 9.757812 4 9.652344 C 4 9.625 4.03125 9.601562 4.074219 9.601562 C 4.410156 9.601562 4.285156 8.699219 3.9375 8.621094 C 3.847656 8.601562 3.765625 8.574219 3.75 8.554688 C 3.734375 8.535156 3.636719 8.5 3.527344 8.472656 C 3.230469 8.402344 3.203125 8.304688 3.199219 7.386719 C 3.199219 6.894531 3.179688 6.601562 3.148438 6.601562 C 3.078125 6.601562 3.089844 6.464844 3.164062 6.429688 C 3.210938 6.40625 3.210938 6.394531 3.164062 6.371094 C 3.128906 6.355469 3.101562 6.285156 3.101562 6.214844 C 3.101562 6.015625 2.871094 5.578125 2.726562 5.5 C 2.578125 5.421875 2.566406 5.367188 2.6875 5.328125 C 2.808594 5.285156 2.96875 5.019531 3.046875 4.722656 C 3.085938 4.585938 3.140625 4.441406 3.171875 4.40625 C 3.210938 4.351562 3.207031 4.328125 3.164062 4.3125 C 3.085938 4.289062 3.078125 4.101562 3.152344 4.101562 C 3.1875 4.101562 3.199219 3.851562 3.191406 3.351562 C 3.183594 2.9375 3.1875 2.59375 3.199219 2.585938 C 3.214844 2.582031 3.261719 2.507812 3.308594 2.425781 C 3.375 2.308594 3.449219 2.261719 3.632812 2.21875 C 3.992188 2.132812 4.136719 2.066406 4.195312 1.957031 C 4.265625 1.828125 4.265625 1.414062 4.199219 1.375 C 4.171875 1.355469 4.160156 1.324219 4.175781 1.300781 C 4.285156 1.121094 3.34375 1.019531 2.949219 1.171875 M 7.460938 1.175781 C 7.402344 1.21875 7.351562 1.289062 7.351562 1.328125 C 7.351562 1.367188 7.328125 1.398438 7.300781 1.398438 C 7.273438 1.398438 7.25 1.511719 7.25 1.648438 C 7.25 1.789062 7.269531 1.898438 7.292969 1.898438 C 7.320312 1.898438 7.347656 1.941406 7.363281 1.992188 C 7.386719 2.089844 7.570312 2.164062 7.914062 2.222656 C 8.285156 2.285156 8.351562 2.425781 8.351562 3.1875 C 8.351562 3.59375 8.371094 3.851562 8.398438 3.851562 C 8.464844 3.851562 8.464844 4.136719 8.398438 4.160156 C 8.339844 4.179688 8.4375 4.800781 8.5 4.800781 C 8.523438 4.800781 8.550781 4.851562 8.570312 4.914062 C 8.585938 4.972656 8.679688 5.113281 8.777344 5.21875 C 8.875 5.324219 8.949219 5.414062 8.941406 5.417969 C 8.800781 5.480469 8.714844 5.558594 8.660156 5.667969 C 8.625 5.738281 8.574219 5.800781 8.550781 5.800781 C 8.527344 5.800781 8.519531 5.84375 8.535156 5.898438 C 8.550781 5.953125 8.539062 6 8.511719 6 C 8.4375 6 8.328125 6.519531 8.398438 6.539062 C 8.464844 6.5625 8.464844 6.949219 8.398438 6.949219 C 8.371094 6.949219 8.351562 7.207031 8.351562 7.617188 C 8.351562 8.367188 8.332031 8.414062 7.988281 8.476562 C 7.882812 8.496094 7.800781 8.53125 7.800781 8.554688 C 7.800781 8.578125 7.75 8.601562 7.691406 8.601562 C 7.25 8.601562 7.074219 9.210938 7.421875 9.546875 C 7.605469 9.722656 8.433594 9.777344 8.488281 9.613281 C 8.5 9.578125 8.53125 9.5625 8.554688 9.578125 C 8.71875 9.679688 9.339844 9.21875 9.496094 8.875 C 9.566406 8.714844 9.660156 6.859375 9.597656 6.785156 C 9.542969 6.71875 9.789062 6.273438 9.921875 6.203125 C 9.992188 6.164062 10.050781 6.117188 10.050781 6.09375 C 10.050781 6.074219 10.1875 6.027344 10.351562 5.996094 C 10.820312 5.902344 10.898438 5.816406 10.898438 5.398438 C 10.898438 5.023438 10.738281 4.769531 10.539062 4.820312 C 10.488281 4.832031 10.4375 4.820312 10.421875 4.796875 C 10.40625 4.769531 10.355469 4.75 10.304688 4.75 C 9.800781 4.75 9.617188 4.367188 9.605469 3.273438 C 9.597656 2.398438 9.5625 2.050781 9.492188 2.050781 C 9.464844 2.050781 9.457031 2.007812 9.472656 1.960938 C 9.492188 1.902344 9.449219 1.808594 9.351562 1.699219 C 9.269531 1.609375 9.199219 1.515625 9.199219 1.496094 C 9.199219 1.242188 7.742188 0.96875 7.460938 1.175781 M 11.851562 10.820312 C 11.476562 10.960938 11.410156 10.996094 11.273438 11.121094 C 11.199219 11.191406 11.148438 11.25 11.167969 11.25 C 11.183594 11.25 11.15625 11.292969 11.101562 11.347656 C 10.941406 11.507812 10.890625 11.789062 10.863281 12.664062 C 10.851562 13.125 10.820312 13.5 10.792969 13.5 C 10.726562 13.5 10.742188 13.636719 10.8125 13.667969 C 10.859375 13.6875 10.859375 13.703125 10.804688 13.742188 C 10.769531 13.765625 10.753906 13.8125 10.773438 13.84375 C 10.789062 13.875 10.78125 13.898438 10.753906 13.898438 C 10.726562 13.898438 10.6875 13.957031 10.671875 14.027344 C 10.628906 14.195312 10.441406 14.335938 10.199219 14.375 C 10.089844 14.394531 10 14.429688 10 14.453125 C 10 14.476562 9.96875 14.484375 9.929688 14.46875 C 9.746094 14.398438 9.550781 14.699219 9.550781 15.050781 C 9.550781 15.453125 9.632812 15.550781 10.039062 15.640625 C 10.375 15.714844 10.628906 15.90625 10.703125 16.140625 C 10.738281 16.242188 10.785156 16.351562 10.8125 16.386719 C 10.847656 16.429688 10.839844 16.449219 10.792969 16.449219 C 10.746094 16.453125 10.742188 16.464844 10.78125 16.488281 C 10.816406 16.511719 10.847656 16.835938 10.859375 17.425781 C 10.882812 18.28125 10.9375 18.601562 11.058594 18.601562 C 11.082031 18.601562 11.101562 18.632812 11.101562 18.671875 C 11.101562 18.789062 11.457031 19.105469 11.722656 19.21875 C 12.003906 19.34375 12.898438 19.40625 12.898438 19.304688 C 12.898438 19.273438 12.933594 19.25 12.972656 19.25 C 13.308594 19.25 13.183594 18.347656 12.835938 18.273438 C 12.75 18.253906 12.664062 18.222656 12.648438 18.203125 C 12.636719 18.1875 12.535156 18.148438 12.425781 18.121094 C 12.128906 18.050781 12.101562 17.953125 12.101562 17.039062 C 12.101562 16.546875 12.082031 16.25 12.050781 16.25 C 11.976562 16.25 11.988281 16.113281 12.0625 16.078125 C 12.113281 16.054688 12.113281 16.042969 12.0625 16.019531 C 12.027344 16.003906 12 15.933594 12 15.863281 C 12 15.664062 11.773438 15.230469 11.628906 15.152344 C 11.476562 15.070312 11.464844 15.019531 11.585938 14.976562 C 11.710938 14.933594 11.867188 14.667969 11.949219 14.375 C 11.984375 14.238281 12.039062 14.09375 12.070312 14.054688 C 12.109375 14.003906 12.109375 13.976562 12.0625 13.960938 C 11.988281 13.9375 11.976562 13.75 12.050781 13.75 C 12.085938 13.75 12.101562 13.5 12.089844 13 C 12.082031 12.585938 12.085938 12.246094 12.101562 12.238281 C 12.113281 12.230469 12.164062 12.15625 12.210938 12.074219 C 12.273438 11.960938 12.347656 11.910156 12.535156 11.867188 C 12.890625 11.785156 13.039062 11.714844 13.097656 11.605469 C 13.164062 11.480469 13.167969 11.066406 13.097656 11.023438 C 13.070312 11.007812 13.058594 10.972656 13.074219 10.949219 C 13.1875 10.769531 12.246094 10.671875 11.851562 10.820312 M 16.363281 10.824219 C 16.300781 10.867188 16.25 10.9375 16.25 10.976562 C 16.25 11.015625 16.226562 11.050781 16.199219 11.050781 C 16.171875 11.050781 16.148438 11.164062 16.148438 11.300781 C 16.148438 11.4375 16.167969 11.550781 16.195312 11.550781 C 16.21875 11.550781 16.25 11.59375 16.261719 11.644531 C 16.289062 11.738281 16.46875 11.816406 16.8125 11.875 C 17.1875 11.9375 17.25 12.078125 17.25 12.835938 C 17.25 13.246094 17.269531 13.5 17.300781 13.5 C 17.363281 13.5 17.367188 13.785156 17.300781 13.808594 C 17.242188 13.828125 17.339844 14.449219 17.398438 14.449219 C 17.421875 14.449219 17.453125 14.5 17.46875 14.5625 C 17.484375 14.625 17.578125 14.761719 17.675781 14.867188 C 17.773438 14.972656 17.847656 15.0625 17.839844 15.066406 C 17.699219 15.132812 17.613281 15.207031 17.558594 15.316406 C 17.523438 15.390625 17.476562 15.449219 17.453125 15.449219 C 17.429688 15.449219 17.421875 15.496094 17.433594 15.550781 C 17.449219 15.605469 17.4375 15.648438 17.410156 15.648438 C 17.335938 15.648438 17.230469 16.167969 17.296875 16.191406 C 17.363281 16.214844 17.367188 16.601562 17.300781 16.601562 C 17.269531 16.601562 17.25 16.855469 17.25 17.265625 C 17.25 18.015625 17.230469 18.0625 16.886719 18.125 C 16.785156 18.144531 16.699219 18.179688 16.699219 18.207031 C 16.699219 18.230469 16.652344 18.25 16.589844 18.25 C 16.152344 18.25 15.976562 18.863281 16.320312 19.195312 C 16.503906 19.375 17.332031 19.425781 17.386719 19.261719 C 17.398438 19.226562 17.429688 19.210938 17.457031 19.226562 C 17.621094 19.332031 18.238281 18.867188 18.394531 18.523438 C 18.46875 18.367188 18.558594 16.507812 18.5 16.4375 C 18.441406 16.367188 18.6875 15.921875 18.820312 15.851562 C 18.890625 15.8125 18.949219 15.765625 18.949219 15.742188 C 18.949219 15.722656 19.085938 15.679688 19.253906 15.644531 C 19.71875 15.554688 19.800781 15.464844 19.800781 15.046875 C 19.800781 14.675781 19.640625 14.417969 19.4375 14.46875 C 19.390625 14.480469 19.335938 14.46875 19.320312 14.445312 C 19.308594 14.421875 19.253906 14.398438 19.203125 14.398438 C 18.699219 14.398438 18.519531 14.015625 18.507812 12.925781 C 18.496094 12.046875 18.464844 11.699219 18.390625 11.699219 C 18.363281 11.699219 18.355469 11.660156 18.371094 11.609375 C 18.390625 11.550781 18.347656 11.460938 18.25 11.351562 C 18.167969 11.257812 18.101562 11.164062 18.101562 11.144531 C 18.101562 10.890625 16.640625 10.621094 16.363281 10.824219 "/>
</g>
</svg>
