<svg id="svg" xmlns="http://www.w3.org/2000/svg" xmlns:xlink="http://www.w3.org/1999/xlink" width="400" height="400" viewBox="0, 0, 400,400"><g id="svgg"><path id="path0" d="M138.763 3.508 C 137.257 4.356,135.363 6.332,134.553 7.897 C 132.735 11.413,85.000 178.182,85.000 181.018 C 85.000 192.246,101.380 197.699,107.419 188.483 C 108.684 186.553,154.476 28.739,156.893 17.980 C 159.417 6.747,148.491 -1.975,138.763 3.508 M49.500 45.148 C 46.381 46.844,5.041 88.171,3.433 91.200 C 1.605 94.646,1.597 100.332,3.417 103.800 C 6.614 109.889,49.282 150.690,53.197 151.400 C 61.716 152.946,68.468 146.808,67.759 138.164 L 67.321 132.828 49.676 115.183 L 32.031 97.538 50.015 79.457 L 68.000 61.377 68.000 56.089 C 68.000 46.580,57.878 40.593,49.500 45.148 M180.241 45.325 C 170.642 50.656,172.255 58.536,185.805 72.500 C 191.142 78.000,198.868 85.985,202.974 90.244 L 210.439 97.989 192.801 115.744 C 172.237 136.447,170.478 140.241,177.728 148.252 C 185.006 156.294,189.957 153.562,216.827 126.673 C 248.570 94.908,248.702 99.995,215.275 66.750 L 192.400 44.000 187.450 44.035 C 184.728 44.055,181.484 44.635,180.241 45.325 M292.959 208.750 C 289.530 211.819,241.000 378.455,241.000 387.160 C 241.000 401.748,260.793 403.324,265.441 389.106 C 276.597 354.977,313.999 218.054,313.047 214.824 C 310.512 206.222,299.503 202.893,292.959 208.750 M206.000 248.689 C 203.737 249.490,160.082 293.095,158.433 296.200 C 154.017 304.521,155.248 306.504,180.856 332.317 C 207.094 358.764,209.338 360.140,217.810 354.974 C 228.807 348.270,226.558 342.245,204.930 320.478 L 187.024 302.455 204.538 284.978 C 223.640 265.916,225.280 263.408,223.053 256.661 C 220.781 249.776,213.088 246.179,206.000 248.689 M337.388 248.980 C 331.655 251.297,329.094 260.505,332.432 266.800 C 333.220 268.285,341.315 276.915,350.421 285.977 L 366.977 302.454 348.989 320.539 L 331.000 338.623 331.000 344.089 C 331.000 354.375,340.051 360.211,348.800 355.567 C 354.054 352.778,395.925 309.748,396.987 306.046 C 399.023 298.946,397.763 297.201,372.231 271.750 L 348.404 248.000 343.952 248.063 C 341.503 248.098,338.550 248.511,337.388 248.980 " stroke="none" fill="#000000" fill-rule="evenodd"></path></g></svg>