<?xml version="1.0" standalone="no"?>
<svg version="1.0" xmlns="http://www.w3.org/2000/svg"
 width="400.000000pt" height="400.000000pt" viewBox="0 0 400.000000 400.000000"
 preserveAspectRatio="xMidYMid meet">
<g transform="translate(0.000000,400.000000) scale(0.100000,-0.100000)"
fill="#000000" stroke="none">
<path d="M551 3954 c-70 -19 -107 -42 -164 -103 -67 -71 -78 -117 -87 -351 -9
-257 -21 -285 -135 -305 -54 -10 -88 -29 -119 -65 -23 -28 -26 -40 -26 -106 0
-71 2 -76 36 -113 28 -31 47 -42 87 -51 29 -6 67 -19 85 -30 55 -34 65 -72 72
-290 5 -130 13 -211 23 -242 43 -134 181 -218 360 -218 122 0 177 40 185 134
9 106 -34 165 -134 186 -90 19 -90 17 -97 241 -7 230 -17 285 -62 344 -33 42
-33 44 -15 60 11 10 29 38 41 63 20 39 23 69 30 263 4 120 13 227 19 238 6 12
29 25 53 31 70 18 93 30 127 65 26 27 32 42 36 91 6 71 -14 117 -65 151 -29
19 -47 23 -115 22 -45 0 -105 -7 -135 -15z"/>
<path d="M1479 3947 c-51 -34 -71 -80 -67 -154 6 -91 43 -127 159 -152 47 -10
59 -17 67 -39 6 -15 12 -119 14 -232 3 -201 4 -206 31 -261 15 -32 34 -62 42
-69 12 -10 9 -19 -19 -58 -18 -26 -37 -58 -41 -72 -4 -14 -10 -123 -14 -243
-7 -253 -5 -247 -111 -268 -45 -9 -66 -19 -91 -45 -29 -30 -33 -42 -37 -97 -4
-74 16 -120 67 -154 28 -19 47 -23 115 -23 173 0 301 70 357 195 21 45 24 71
29 260 7 229 12 254 67 293 16 11 52 25 81 31 70 15 89 26 112 64 15 24 20 50
20 104 0 63 -3 75 -26 103 -30 36 -73 60 -106 60 -13 0 -41 9 -64 19 -68 31
-76 60 -84 306 -8 241 -17 274 -92 345 -87 82 -163 110 -302 110 -59 0 -79 -4
-107 -23z"/>
<path d="M2283 1895 c-80 -22 -126 -49 -176 -105 -66 -74 -78 -123 -86 -360
-9 -251 -19 -272 -137 -299 -112 -26 -148 -73 -142 -184 4 -65 6 -71 40 -102
25 -23 53 -37 91 -45 31 -6 67 -20 82 -31 51 -41 58 -69 66 -279 8 -235 20
-280 87 -352 74 -79 172 -118 298 -118 72 0 113 16 150 58 20 23 23 38 24 103
0 76 0 77 -39 112 -21 19 -54 38 -72 42 -65 13 -97 26 -105 43 -4 9 -10 114
-13 232 -8 230 -16 272 -71 328 l-22 23 27 34 c52 70 58 95 65 325 4 118 11
223 15 232 7 17 29 26 112 48 26 6 52 23 72 45 28 33 31 42 31 106 0 82 -18
116 -74 143 -42 20 -150 20 -223 1z"/>
<path d="M3224 1900 c-11 -4 -34 -24 -52 -44 -30 -34 -32 -42 -32 -112 0 -72
2 -78 33 -108 24 -25 47 -36 95 -45 101 -20 99 -14 104 -262 6 -228 10 -253
60 -327 l29 -43 -30 -34 c-16 -19 -35 -51 -42 -72 -6 -21 -14 -136 -18 -256
-7 -251 -2 -238 -105 -259 -46 -8 -69 -19 -93 -44 -31 -30 -33 -36 -33 -107 0
-67 3 -79 26 -107 39 -46 74 -60 152 -60 128 0 262 58 321 140 40 56 51 116
51 284 0 148 12 241 36 288 17 33 55 54 125 69 34 7 64 22 88 44 36 33 36 34
36 119 0 79 -2 87 -28 114 -21 21 -48 35 -95 47 -87 21 -110 37 -135 93 -17
39 -21 72 -24 192 -6 293 -12 317 -95 396 -51 50 -104 78 -176 93 -61 13 -167
14 -198 1z"/>
</g>
</svg>
